<svg width="32" height="32" viewBox="0 0 32 32" fill="none" xmlns="http://www.w3.org/2000/svg">
<path d="M26.6653 5.33334H5.33195C3.86128 5.33334 2.66528 6.52934 2.66528 8.00001V24C2.66528 25.4707 3.86128 26.6667 5.33195 26.6667H26.6653C28.136 26.6667 29.332 25.4707 29.332 24V8.00001C29.332 6.52934 28.136 5.33334 26.6653 5.33334ZM8.66528 9.33334C9.19572 9.33334 9.70442 9.54406 10.0795 9.91913C10.4546 10.2942 10.6653 10.8029 10.6653 11.3333C10.6653 11.8638 10.4546 12.3725 10.0795 12.7476C9.70442 13.1226 9.19572 13.3333 8.66528 13.3333C8.13485 13.3333 7.62614 13.1226 7.25107 12.7476C6.876 12.3725 6.66528 11.8638 6.66528 11.3333C6.66528 10.8029 6.876 10.2942 7.25107 9.91913C7.62614 9.54406 8.13485 9.33334 8.66528 9.33334ZM15.9986 22.6667H6.66528L11.9986 16L13.9986 18.6667L17.9986 13.3333L25.332 22.6667H15.9986Z" fill="white"/>
</svg>
