<svg width="19" height="19" viewBox="0 0 19 19" fill="none" xmlns="http://www.w3.org/2000/svg">
<g clip-path="url(#clip0_325_2155)">
<path d="M16.341 7.54345C15.8115 7.54345 15.3456 7.76228 15.0033 8.10465C13.7432 7.23284 12.0455 6.67164 10.1642 6.61164L11.1419 2.20673L14.255 2.90558C14.255 3.66797 14.8762 4.28918 15.6386 4.28918C16.4151 4.28918 17.0398 3.65032 17.0398 2.88794C17.0398 2.12555 16.4186 1.48669 15.6386 1.48669C15.095 1.48669 14.6256 1.81494 14.3927 2.2632L10.9549 1.50081C10.7819 1.45493 10.6125 1.57846 10.5666 1.75141L9.49361 6.60811C7.62646 6.68576 5.94638 7.24696 4.6828 8.11877C4.34043 7.76228 3.85688 7.54345 3.32744 7.54345C1.365 7.54345 0.722612 10.1765 2.51917 11.0766C2.45563 11.3554 2.4274 11.6519 2.4274 11.9484C2.4274 14.9061 5.75932 17.3027 9.8501 17.3027C13.9585 17.3027 17.2904 14.9061 17.2904 11.9484C17.2904 11.6519 17.2587 11.3413 17.181 11.0624C18.9423 10.1589 18.2928 7.54345 16.341 7.54345ZM5.36753 11.2636C5.36753 10.4871 5.98874 9.86238 6.76878 9.86238C7.53116 9.86238 8.15237 10.4836 8.15237 11.2636C8.15237 12.026 7.53116 12.6472 6.76878 12.6472C5.99227 12.6507 5.36753 12.026 5.36753 11.2636ZM12.9314 14.5638C11.6466 15.8485 8.02178 15.8485 6.73701 14.5638C6.59583 14.4402 6.59583 14.2214 6.73701 14.0802C6.86054 13.9567 7.07938 13.9567 7.20291 14.0802C8.18414 15.0861 11.4384 15.1038 12.462 14.0802C12.5855 13.9567 12.8043 13.9567 12.9279 14.0802C13.0726 14.2214 13.0726 14.4402 12.9314 14.5638ZM12.9032 12.6507C12.1408 12.6507 11.5196 12.0295 11.5196 11.2671C11.5196 10.4906 12.1408 9.86591 12.9032 9.86591C13.6797 9.86591 14.3044 10.4871 14.3044 11.2671C14.3009 12.026 13.6797 12.6507 12.9032 12.6507Z" fill="white"/>
</g>
<defs>
<clipPath id="clip0_325_2155">
<rect width="18.0714" height="18.0714" fill="white" transform="translate(0.800049 0.360718)"/>
</clipPath>
</defs>
</svg>
