<svg width="19" height="19" viewBox="0 0 19 19" fill="none" xmlns="http://www.w3.org/2000/svg">
<path d="M14.8153 6.28587C14.8251 6.41764 14.8251 6.54866 14.8251 6.67967C14.8251 10.6893 11.7733 15.3095 6.196 15.3095C4.4777 15.3095 2.8814 14.8118 1.53809 13.9474C1.78205 13.9753 2.01698 13.985 2.27073 13.985C3.63587 13.9883 4.96235 13.5319 6.03637 12.6892C5.40343 12.6777 4.78987 12.4689 4.28136 12.0919C3.77284 11.7148 3.39476 11.1884 3.1999 10.5861C3.3874 10.614 3.57564 10.6328 3.77292 10.6328C4.04474 10.6328 4.31807 10.5951 4.57183 10.5296C3.88493 10.391 3.26728 10.0186 2.82388 9.47599C2.38049 8.93335 2.13873 8.25388 2.13971 7.55313V7.51548C2.54406 7.74062 3.01317 7.88142 3.51013 7.90025C3.0938 7.62359 2.75243 7.24819 2.51646 6.80752C2.28049 6.36686 2.15727 5.87463 2.15779 5.37477C2.15779 4.81154 2.30763 4.295 2.57042 3.84472C3.33253 4.78219 4.28306 5.54913 5.36045 6.09586C6.43783 6.64259 7.61804 6.95693 8.82464 7.01851C8.77795 6.79262 8.74934 6.55844 8.74934 6.32352C8.74914 5.92516 8.82746 5.53068 8.97981 5.16261C9.13216 4.79454 9.35556 4.46011 9.63724 4.17843C9.91892 3.89675 10.2534 3.67335 10.6214 3.521C10.9895 3.36865 11.384 3.29033 11.7823 3.29053C12.6558 3.29053 13.4441 3.65647 13.9983 4.24831C14.6773 4.11701 15.3285 3.86913 15.9229 3.51567C15.6966 4.21655 15.2225 4.81086 14.5894 5.18727C15.1916 5.11859 15.7802 4.96022 16.3356 4.71742C15.9208 5.32213 15.4068 5.85241 14.8153 6.28587Z" fill="white"/>
</svg>
