<svg width="30" height="30" viewBox="0 0 30 30" fill="none" xmlns="http://www.w3.org/2000/svg">
<path d="M10 15C10 15.3315 10.1317 15.6495 10.3661 15.8839C10.6005 16.1183 10.9185 16.25 11.25 16.25H18.75C19.0815 16.25 19.3995 16.1183 19.6339 15.8839C19.8683 15.6495 20 15.3315 20 15C20 14.6685 19.8683 14.3505 19.6339 14.1161C19.3995 13.8817 19.0815 13.75 18.75 13.75H11.25C10.9185 13.75 10.6005 13.8817 10.3661 14.1161C10.1317 14.3505 10 14.6685 10 15Z" fill="white"/>
<path d="M11.2499 20H9.01237C7.72781 20.0343 6.47665 19.5883 5.50345 18.7491C4.53025 17.91 3.90498 16.7381 3.74987 15.4625C3.68535 14.7681 3.76682 14.0678 3.98904 13.4068C4.21126 12.7457 4.56932 12.1384 5.0402 11.624C5.51109 11.1096 6.08439 10.6993 6.72326 10.4196C7.36214 10.1399 8.05246 9.997 8.74987 9.99999H11.2499C11.5814 9.99999 11.8993 9.86829 12.1337 9.63387C12.3682 9.39945 12.4999 9.08151 12.4999 8.74999C12.4999 8.41847 12.3682 8.10053 12.1337 7.86611C11.8993 7.63169 11.5814 7.49999 11.2499 7.49999H9.01237C7.15952 7.47523 5.36007 8.12056 3.94525 9.31719C2.53042 10.5138 1.59543 12.1812 1.31237 14.0125C1.17167 15.0717 1.25895 16.1488 1.56834 17.1716C1.87774 18.1944 2.40212 19.1392 3.10635 19.9429C3.81058 20.7465 4.67841 21.3904 5.65171 21.8314C6.62501 22.2725 7.68132 22.5004 8.74987 22.5H11.2499C11.5814 22.5 11.8993 22.3683 12.1337 22.1339C12.3682 21.8995 12.4999 21.5815 12.4999 21.25C12.4999 20.9185 12.3682 20.6005 12.1337 20.3661C11.8993 20.1317 11.5814 20 11.2499 20ZM28.7499 14.05C28.4703 12.1956 27.5237 10.507 26.0876 9.30107C24.6515 8.09511 22.8246 7.45469 20.9499 7.49999H19.0624C18.0499 7.49999 17.4999 8.06249 17.4999 8.74999C17.4999 9.08151 17.6316 9.39945 17.866 9.63387C18.1004 9.86829 18.4183 9.99999 18.7499 9.99999H20.9874C22.2719 9.9657 23.5231 10.4117 24.4963 11.2508C25.4695 12.09 26.0948 13.2619 26.2499 14.5375C26.3144 15.2319 26.2329 15.9322 26.0107 16.5932C25.7885 17.2543 25.4304 17.8615 24.9595 18.376C24.4886 18.8904 23.9153 19.3007 23.2765 19.5804C22.6376 19.86 21.9473 20.003 21.2499 20H18.7499C18.4183 20 18.1004 20.1317 17.866 20.3661C17.6316 20.6005 17.4999 20.9185 17.4999 21.25C17.4999 21.5815 17.6316 21.8995 17.866 22.1339C18.1004 22.3683 18.4183 22.5 18.7499 22.5H21.2499C22.3201 22.5086 23.3797 22.2881 24.3577 21.8532C25.3356 21.4184 26.2091 20.7793 26.9195 19.9788C27.63 19.1784 28.1609 18.2352 28.4766 17.2126C28.7923 16.19 28.8855 15.1116 28.7499 14.05Z" fill="white"/>
</svg>
