<svg width="30" height="30" viewBox="0 0 30 30" fill="none" xmlns="http://www.w3.org/2000/svg">
<path d="M27 4.50001C26.9999 4.27817 26.9505 4.05913 26.8555 3.85865C26.7606 3.65818 26.6223 3.48127 26.4507 3.34067C26.2791 3.20007 26.0785 3.09928 25.8632 3.04556C25.648 2.99184 25.4235 2.98653 25.206 3.03001L10.206 6.03001C9.86608 6.09795 9.56019 6.28152 9.34033 6.54951C9.12047 6.8175 9.00021 7.15337 9 7.50001V21.171C8.50826 21.0564 8.00492 20.999 7.5 21C5.0145 21 3 22.3425 3 24C3 25.6575 5.0145 27 7.5 27C9.9855 27 12 25.6575 12 24V11.73L24 9.33001V18.171C23.5083 18.0564 23.0049 17.999 22.5 18C20.0145 18 18 19.3425 18 21C18 22.6575 20.0145 24 22.5 24C24.9855 24 27 22.6575 27 21V4.50001Z" fill="white"/>
</svg>
