<svg width="24" height="24" viewBox="0 0 24 24" fill="none" xmlns="http://www.w3.org/2000/svg">
<path fill-rule="evenodd" clip-rule="evenodd" d="M9.60005 4.80005H6.00005C5.68179 4.80005 5.37656 4.92648 5.15152 5.15152C4.92648 5.37656 4.80005 5.68179 4.80005 6.00005V9.60005C4.80005 9.91831 4.92648 10.2235 5.15152 10.4486C5.37656 10.6736 5.68179 10.8 6.00005 10.8H9.60005C9.91831 10.8 10.2235 10.6736 10.4486 10.4486C10.6736 10.2235 10.8 9.91831 10.8 9.60005V6.00005C10.8 5.68179 10.6736 5.37656 10.4486 5.15152C10.2235 4.92648 9.91831 4.80005 9.60005 4.80005ZM18.0001 4.80005H14.4001C14.0818 4.80005 13.7766 4.92648 13.5515 5.15152C13.3265 5.37656 13.2001 5.68179 13.2001 6.00005V9.60005C13.2001 9.91831 13.3265 10.2235 13.5515 10.4486C13.7766 10.6736 14.0818 10.8 14.4001 10.8H18.0001C18.3183 10.8 18.6235 10.6736 18.8486 10.4486C19.0736 10.2235 19.2001 9.91831 19.2001 9.60005V6.00005C19.2001 5.68179 19.0736 5.37656 18.8486 5.15152C18.6235 4.92648 18.3183 4.80005 18.0001 4.80005ZM9.60005 13.2001H6.00005C5.68179 13.2001 5.37656 13.3265 5.15152 13.5515C4.92648 13.7766 4.80005 14.0818 4.80005 14.4001V18.0001C4.80005 18.3183 4.92648 18.6235 5.15152 18.8486C5.37656 19.0736 5.68179 19.2001 6.00005 19.2001H9.60005C9.91831 19.2001 10.2235 19.0736 10.4486 18.8486C10.6736 18.6235 10.8 18.3183 10.8 18.0001V14.4001C10.8 14.0818 10.6736 13.7766 10.4486 13.5515C10.2235 13.3265 9.91831 13.2001 9.60005 13.2001ZM18.0001 13.2001H14.4001C14.0818 13.2001 13.7766 13.3265 13.5515 13.5515C13.3265 13.7766 13.2001 14.0818 13.2001 14.4001V18.0001C13.2001 18.3183 13.3265 18.6235 13.5515 18.8486C13.7766 19.0736 14.0818 19.2001 14.4001 19.2001H18.0001C18.3183 19.2001 18.6235 19.0736 18.8486 18.8486C19.0736 18.6235 19.2001 18.3183 19.2001 18.0001V14.4001C19.2001 14.0818 19.0736 13.7766 18.8486 13.5515C18.6235 13.3265 18.3183 13.2001 18.0001 13.2001Z" fill="white"/>
</svg>
