<svg width="46" height="46" viewBox="0 0 46 46" fill="none" xmlns="http://www.w3.org/2000/svg">
<path d="M34.0106 31.9526L4.05343 44.9876C2.10068 45.7647 0.160057 43.8408 0.920225 41.8815L14.0113 11.4529" fill="#FFB636"/>
<path d="M0.920257 41.8817L1.96065 39.4635C2.04986 39.3275 2.13881 39.1913 2.22811 39.0553C7.40284 31.1721 12.6534 23.337 18.0833 15.627L24.1716 21.8675C19.5778 25.0212 4.66198 40.4354 1.53766 44.524C0.857546 43.8984 0.527011 42.8953 0.920257 41.8817Z" fill="#FFD469"/>
<path d="M27.3469 18.367C32.9041 23.9242 35.9436 29.8947 34.1358 31.7025C32.3281 33.5103 26.3576 30.4708 20.8003 24.9136C15.243 19.3564 12.2036 13.3859 14.0114 11.5781C15.8191 9.77022 21.7896 12.8097 27.3469 18.367Z" fill="#A06C33"/>
<path d="M13.9797 29.4303C13.9797 29.9705 13.5418 30.4083 13.0018 30.4083C12.4617 30.4083 12.0238 29.9705 12.0238 29.4303C12.0238 28.8902 12.4616 28.4524 13.0018 28.4524C13.5419 28.4524 13.9797 28.8902 13.9797 29.4303Z" fill="#F7F9AA"/>
<path d="M45.1003 19.1511C45.1003 19.9263 44.4719 20.5546 43.6967 20.5546C42.9216 20.5546 42.2932 19.9263 42.2932 19.1511C42.2932 18.3759 42.9216 17.7476 43.6967 17.7476C44.4719 17.7476 45.1003 18.3759 45.1003 19.1511ZM35.7275 37.8406C34.9523 37.8406 34.324 38.4689 34.324 39.2441C34.324 40.0193 34.9523 40.6477 35.7275 40.6477C36.5027 40.6477 37.1311 40.0193 37.1311 39.2441C37.1311 38.4689 36.5026 37.8406 35.7275 37.8406Z" fill="#FFB636"/>
<path d="M31.9798 7.1446C31.8594 7.95903 31.3332 8.67841 30.536 9.11828C29.9856 9.42196 29.3384 9.57981 28.6666 9.57981C28.4526 9.57971 28.2389 9.56392 28.0272 9.53255C27.5521 9.4623 27.0766 9.53399 26.7227 9.72922C26.564 9.81673 26.2914 10.0082 26.2472 10.3076C26.203 10.6071 26.4085 10.8692 26.5349 10.9989C26.8097 11.2806 27.229 11.4823 27.6893 11.5577C27.702 11.5591 27.7146 11.5595 27.7272 11.5614C29.6696 11.8485 31.0569 13.387 30.8198 14.991C30.6994 15.8055 30.1731 16.5249 29.3759 16.9648C28.8255 17.2685 28.1783 17.4263 27.5066 17.4263C27.2926 17.4262 27.0789 17.4104 26.8672 17.3791C26.3922 17.3087 25.9164 17.3804 25.5625 17.5757C25.4039 17.6632 25.1313 17.8547 25.087 18.1541C25.016 18.6347 25.6061 19.2692 26.5667 19.4111C27.0894 19.4884 27.4504 19.9747 27.3732 20.4974C27.3029 20.9727 26.8945 21.3143 26.428 21.3143C26.3814 21.3143 26.3343 21.3109 26.2869 21.3039C24.3445 21.0167 22.9573 19.4782 23.1944 17.8743C23.3147 17.0598 23.841 16.3404 24.6382 15.9005C25.3619 15.5012 26.2529 15.3541 27.147 15.4862C27.6221 15.5564 28.0976 15.4848 28.4516 15.2896C28.6102 15.2021 28.8828 15.0106 28.9271 14.7111C28.9969 14.2384 28.426 13.6177 27.4929 13.4625C27.4777 13.461 27.4623 13.4597 27.4469 13.4575C26.5529 13.3252 25.7425 12.9267 25.1653 12.335C24.5295 11.6833 24.2339 10.8424 24.3544 10.0278C24.4748 9.21334 25.001 8.49396 25.7982 8.05409C26.5219 7.65482 27.4129 7.50766 28.307 7.63982C28.7819 7.70989 29.2576 7.63838 29.6115 7.44315C29.7702 7.35564 30.0428 7.16418 30.0871 6.86473C30.1313 6.56528 29.9257 6.30312 29.7993 6.17348C29.517 5.88418 29.0826 5.6779 28.6074 5.60773C28.0847 5.53046 27.7236 5.04414 27.8009 4.52143C27.8781 3.99872 28.3646 3.63808 28.8872 3.7149C29.7813 3.84715 30.5916 4.2457 31.1688 4.83732C31.8047 5.48914 32.1003 6.33007 31.9798 7.1446Z" fill="#BEA4FF"/>
<path d="M7.343 14.3471C7.343 15.2255 6.63089 15.9376 5.75249 15.9376C4.87409 15.9376 4.16199 15.2255 4.16199 14.3471C4.16199 13.4687 4.87409 12.7566 5.75249 12.7566C6.63089 12.7566 7.343 13.4686 7.343 14.3471ZM35.7736 12.5095C34.7587 12.5095 33.9361 13.3322 33.9361 14.347C33.9361 15.3618 34.7588 16.1845 35.7736 16.1845C36.7884 16.1845 37.6111 15.3618 37.6111 14.347C37.6111 13.3322 36.7885 12.5095 35.7736 12.5095ZM19.3639 35.5691C18.349 35.5691 17.5264 36.3918 17.5264 37.4066C17.5264 38.4214 18.3491 39.2441 19.3639 39.2441C20.3788 39.2441 21.2014 38.4214 21.2014 37.4066C21.2014 36.3918 20.3788 35.5691 19.3639 35.5691ZM43.7388 27.1556C44.0167 26.6175 43.8057 25.956 43.2676 25.6781C43.0531 25.5674 42.797 25.4204 42.5006 25.2504C39.8957 23.756 34.4758 20.6466 28.0939 25.7992C27.6227 26.1796 27.5492 26.8701 27.9296 27.3412C28.3099 27.8124 29.0003 27.8861 29.4716 27.5055C34.6857 23.2958 38.8946 25.71 41.4092 27.1526C41.715 27.328 42.0037 27.4937 42.2612 27.6266C42.3892 27.6927 42.5289 27.733 42.6724 27.7451C42.8159 27.7572 42.9604 27.7409 43.0976 27.6972C43.2348 27.6534 43.362 27.5831 43.472 27.4901C43.5821 27.3972 43.6727 27.2835 43.7388 27.1556Z" fill="#FF6E83"/>
<path d="M39.0671 5.64016C39.0671 6.1803 38.6292 6.61811 38.0892 6.61811C37.549 6.61811 37.1112 6.1803 37.1112 5.64016C37.1112 5.10002 37.549 4.66221 38.0892 4.66221C38.6293 4.66212 39.0671 5.10002 39.0671 5.64016ZM4.16191 1.06873C3.62177 1.06873 3.18396 1.50653 3.18396 2.04667C3.18396 2.58682 3.62177 3.02462 4.16191 3.02462C4.70205 3.02462 5.13995 2.58682 5.13995 2.04667C5.13995 1.50653 4.70205 1.06873 4.16191 1.06873ZM19.4965 13.8317C19.6071 13.6148 19.7435 13.3678 19.8879 13.1064C20.6205 11.7793 21.6237 9.96191 21.684 7.84519C21.7566 5.30225 20.4322 2.99345 17.7478 0.982925C17.2818 0.633882 16.6213 0.728847 16.2725 1.19469C15.9235 1.66062 16.0183 2.32115 16.4843 2.67001C18.618 4.26815 19.6297 5.94131 19.5771 7.78509C19.5313 9.39077 18.7059 10.8861 18.0426 12.0876C17.8898 12.3646 17.7453 12.6261 17.6192 12.8735C17.3546 13.392 17.5604 14.0267 18.0788 14.2913C18.2268 14.3671 18.3907 14.4067 18.557 14.4067C18.7514 14.4069 18.9421 14.3532 19.1079 14.2517C19.2737 14.1502 19.4082 14.0048 19.4965 13.8317Z" fill="#59CAFC"/>
</svg>
