<svg width="19" height="26" viewBox="0 0 19 26" fill="none" xmlns="http://www.w3.org/2000/svg">
<path d="M9.50033 16.4211C11.7734 16.4211 13.5946 14.5874 13.5946 12.3158L13.6083 4.10526C13.6083 1.83368 11.7734 0 9.50033 0C7.22725 0 5.39236 1.83368 5.39236 4.10526V12.3158C5.39236 14.5874 7.22725 16.4211 9.50033 16.4211ZM17.8258 12.3158C17.2507 12.3158 16.7714 12.7263 16.6893 13.2874C16.1826 16.8589 12.9647 19.2947 9.50033 19.2947C6.03594 19.2947 2.81803 16.8726 2.31138 13.2874C2.2692 13.0165 2.13143 12.7696 1.92298 12.5914C1.71453 12.4132 1.44915 12.3155 1.17484 12.3158C0.462791 12.3158 -0.0849391 12.9453 0.0109136 13.6432C0.640803 17.7074 4.06411 20.8958 8.13101 21.5116V24.6316C8.13101 25.3842 8.7472 26 9.50033 26C10.2535 26 10.8697 25.3842 10.8697 24.6316V21.5116C14.9229 20.9232 18.3599 17.7074 18.9898 13.6432C19.0118 13.4775 18.9982 13.309 18.9498 13.1491C18.9014 12.9891 18.8193 12.8413 18.7091 12.7156C18.5989 12.5899 18.463 12.4892 18.3107 12.4203C18.1584 12.3513 17.9931 12.3157 17.8258 12.3158Z" fill="white"/>
</svg>
